<svg width="16" height="16" viewBox="0 0 16 16" fill="none" xmlns="http://www.w3.org/2000/svg">
<g id="fire" clip-path="url(#clip0_5391_645)">
<path id="Vector" d="M5.92534 7.96841C5.92472 4.27421 7.16668 1.7903 9.65059 0.54834C9.96108 4.27421 13.3765 5.51616 13.3765 9.86301C13.3765 11.3453 12.7876 12.7668 11.7395 13.8149C10.6914 14.863 9.2699 15.4518 7.78766 15.4518C6.30541 15.4518 4.88388 14.863 3.83577 13.8149C2.78767 12.7668 2.19885 11.3453 2.19885 9.86301C2.19885 7.68959 2.81983 6.75812 4.06179 5.51616C4.06179 7.3791 5.92534 7.96841 5.92534 7.96841Z" fill="#F16923"/>
<path id="Vector_2" opacity="0.1" d="M7.78772 15.2965C5.28766 15.2965 3.17074 13.672 2.42371 11.4229C3.09933 13.7497 5.24295 15.4518 7.78772 15.4518C10.3325 15.4518 12.4761 13.7497 13.1517 11.4229C12.4047 13.672 10.2878 15.2965 7.78772 15.2965Z" fill="#010101"/>
<path id="Vector_3" d="M10.5821 11.4155C10.5821 12.1566 10.2877 12.8674 9.76363 13.3914C9.23958 13.9155 8.52881 14.2099 7.78769 14.2099C7.04657 14.2099 6.3358 13.9155 5.81175 13.3914C5.2877 12.8674 4.99329 12.1566 4.99329 11.4155C4.99329 10.3741 5.30378 9.83698 5.92475 9.24208C5.92475 10.484 6.85622 10.7945 6.85622 10.7945C6.85622 9.02474 7.4772 7.97405 8.71915 7.37915C8.8744 9.16446 10.5821 9.74694 10.5821 11.4155Z" fill="#FDB816"/>
<path id="Vector_4" opacity="0.2" d="M6.85622 10.9498C6.85622 9.17999 7.4772 8.12929 8.71915 7.53439C8.87129 9.28431 10.5113 9.88107 10.5759 11.4757C10.5765 11.4553 10.5821 11.436 10.5821 11.4155C10.5821 9.74632 8.8744 9.16446 8.71915 7.37915C7.4772 7.97405 6.85622 9.02474 6.85622 10.7945C6.85622 10.7945 5.92475 10.484 5.92475 9.24208C5.30378 9.83698 4.99329 10.3741 4.99329 11.4155C4.99329 11.4304 4.99763 11.4441 4.99763 11.459C5.02061 10.4934 5.32675 9.96987 5.92475 9.39733C5.92475 10.6393 6.85622 10.9498 6.85622 10.9498Z" fill="white"/>
<path id="Vector_5" opacity="0.1" d="M7.78769 14.0546C7.05459 14.0542 6.35108 13.7655 5.82905 13.2508C5.30703 12.7361 5.00839 12.0367 4.99763 11.3037C4.99701 11.3422 4.99329 11.3757 4.99329 11.4155C4.99329 12.1566 5.2877 12.8674 5.81175 13.3914C6.3358 13.9155 7.04657 14.2099 7.78769 14.2099C8.52881 14.2099 9.23958 13.9155 9.76363 13.3914C10.2877 12.8674 10.5821 12.1566 10.5821 11.4155C10.5821 11.3826 10.5771 11.3528 10.5759 11.3205C10.5611 12.0503 10.2609 12.7454 9.73968 13.2565C9.21846 13.7676 8.5177 14.0541 7.78769 14.0546Z" fill="#010101"/>
<path id="Vector_6" opacity="0.2" d="M5.92534 8.12365C5.92472 4.42945 7.16668 1.94554 9.65059 0.703584C9.95922 4.40586 13.3299 5.65899 13.3727 9.93939C13.3727 9.91393 13.3765 9.88909 13.3765 9.86301C13.3765 5.51616 9.96108 4.27421 9.65059 0.54834C7.16668 1.7903 5.92472 4.27421 5.92534 7.96841C5.92534 7.96841 4.06179 7.3791 4.06179 5.51616C2.81983 6.75812 2.19885 7.68959 2.19885 9.86301C2.19885 9.88537 2.20196 9.90772 2.20196 9.93008C2.22059 7.8231 2.83846 6.89474 4.06179 5.67141C4.06179 7.53434 5.92534 8.12365 5.92534 8.12365Z" fill="white"/>
<path id="Vector_7" d="M5.92534 7.96841C5.92472 4.27421 7.16668 1.7903 9.65059 0.54834C9.96108 4.27421 13.3765 5.51616 13.3765 9.86301C13.3765 11.3453 12.7876 12.7668 11.7395 13.8149C10.6914 14.863 9.2699 15.4518 7.78766 15.4518C6.30541 15.4518 4.88388 14.863 3.83577 13.8149C2.78767 12.7668 2.19885 11.3453 2.19885 9.86301C2.19885 7.68959 2.81983 6.75812 4.06179 5.51616C4.06179 7.3791 5.92534 7.96841 5.92534 7.96841Z" fill="url(#paint0_linear_5391_645)"/>
</g>
<defs>
<linearGradient id="paint0_linear_5391_645" x1="3.3823" y1="5.80109" x2="13.623" y2="10.5764" gradientUnits="userSpaceOnUse">
<stop stop-color="white" stop-opacity="0.2"/>
<stop offset="1" stop-color="white" stop-opacity="0"/>
</linearGradient>
<clipPath id="clip0_5391_645">
<rect width="14.9035" height="14.9035" fill="white" transform="translate(0.335938 0.54834)"/>
</clipPath>
</defs>
</svg>
