<svg width="75" height="18" viewBox="0 0 75 18" fill="none" xmlns="http://www.w3.org/2000/svg">
<g id="Group 8">
<rect id="Rectangle 5" x="0.5" y="0.5" width="74" height="17" rx="8.5" fill="#F1F1F7" stroke="white"/>
<g id="Group 7">
<path id="Vector" fill-rule="evenodd" clip-rule="evenodd" d="M9.25522 12.5929L6.16832 14.2163C6.12022 14.2417 6.06596 14.2531 6.0117 14.2493C5.95745 14.2454 5.90537 14.2263 5.86137 14.1944C5.81738 14.1624 5.78324 14.1187 5.76283 14.0683C5.74241 14.0178 5.73654 13.9627 5.74587 13.9091L6.33591 10.4719L3.83787 8.03731C3.79896 7.99939 3.77145 7.95133 3.75845 7.89857C3.74545 7.84581 3.74748 7.79047 3.76432 7.73881C3.78116 7.68715 3.81212 7.64123 3.85371 7.60627C3.8953 7.5713 3.94585 7.54868 3.99964 7.54097L7.4508 7.03938L8.99454 3.91175C9.01861 3.86318 9.05577 3.8223 9.10183 3.79372C9.14789 3.76514 9.20102 3.75 9.25522 3.75C9.30943 3.75 9.36256 3.76514 9.40862 3.79372C9.45468 3.8223 9.49184 3.86318 9.51591 3.91175L11.0596 7.03938L14.5108 7.54097C14.5646 7.54868 14.6151 7.5713 14.6567 7.60627C14.6983 7.64123 14.7293 7.68715 14.7461 7.73881C14.763 7.79047 14.765 7.84581 14.752 7.89857C14.739 7.95133 14.7115 7.99939 14.6726 8.03731L12.1751 10.4719L12.7646 13.9091C12.7738 13.9627 12.7678 14.0177 12.7473 14.068C12.7269 14.1184 12.6927 14.162 12.6487 14.1939C12.6048 14.2258 12.5528 14.2447 12.4986 14.2486C12.4444 14.2525 12.3902 14.2411 12.3421 14.2158L9.25522 12.5929Z" fill="#F5A623"/>
<path id="Vector_2" fill-rule="evenodd" clip-rule="evenodd" d="M23.2206 12.5929L20.1337 14.2163C20.0856 14.2417 20.0313 14.2531 19.977 14.2493C19.9228 14.2454 19.8707 14.2263 19.8267 14.1944C19.7827 14.1624 19.7486 14.1187 19.7282 14.0683C19.7077 14.0178 19.7019 13.9627 19.7112 13.9091L20.3012 10.4719L17.8032 8.03731C17.7643 7.99939 17.7368 7.95133 17.7238 7.89857C17.7108 7.84581 17.7128 7.79047 17.7297 7.73881C17.7465 7.68715 17.7775 7.64123 17.819 7.60627C17.8606 7.5713 17.9112 7.54868 17.965 7.54097L21.4161 7.03938L22.9599 3.91175C22.9839 3.86318 23.0211 3.8223 23.0672 3.79372C23.1132 3.76514 23.1663 3.75 23.2206 3.75C23.2748 3.75 23.3279 3.76514 23.3739 3.79372C23.42 3.8223 23.4572 3.86318 23.4812 3.91175L25.025 7.03938L28.4761 7.54097C28.5299 7.54868 28.5805 7.5713 28.6221 7.60627C28.6637 7.64123 28.6946 7.68715 28.7115 7.73881C28.7283 7.79047 28.7303 7.84581 28.7173 7.89857C28.7043 7.95133 28.6768 7.99939 28.6379 8.03731L26.1405 10.4719L26.7299 13.9091C26.7391 13.9627 26.7331 14.0177 26.7127 14.068C26.6922 14.1184 26.658 14.162 26.6141 14.1939C26.5701 14.2258 26.5181 14.2447 26.4639 14.2486C26.4097 14.2525 26.3555 14.2411 26.3075 14.2158L23.2206 12.5929Z" fill="#F5A623"/>
<path id="Vector_3" fill-rule="evenodd" clip-rule="evenodd" d="M37.1858 12.5929L34.0989 14.2163C34.0508 14.2417 33.9965 14.2531 33.9422 14.2493C33.888 14.2454 33.8359 14.2263 33.7919 14.1944C33.7479 14.1624 33.7138 14.1187 33.6934 14.0683C33.673 14.0178 33.6671 13.9627 33.6764 13.9091L34.2664 10.4719L31.7684 8.03731C31.7295 7.99939 31.702 7.95133 31.689 7.89857C31.676 7.84581 31.678 7.79047 31.6949 7.73881C31.7117 7.68715 31.7427 7.64123 31.7843 7.60627C31.8258 7.5713 31.8764 7.54868 31.9302 7.54097L35.3813 7.03938L36.9251 3.91175C36.9492 3.86318 36.9863 3.8223 37.0324 3.79372C37.0784 3.76514 37.1316 3.75 37.1858 3.75C37.24 3.75 37.2931 3.76514 37.3392 3.79372C37.3852 3.8223 37.4224 3.86318 37.4464 3.91175L38.9902 7.03938L42.4413 7.54097C42.4951 7.54868 42.5457 7.5713 42.5873 7.60627C42.6289 7.64123 42.6598 7.68715 42.6767 7.73881C42.6935 7.79047 42.6955 7.84581 42.6825 7.89857C42.6695 7.95133 42.642 7.99939 42.6031 8.03731L40.1057 10.4719L40.6951 13.9091C40.7043 13.9627 40.6984 14.0177 40.6779 14.068C40.6574 14.1184 40.6233 14.162 40.5793 14.1939C40.5353 14.2258 40.4833 14.2447 40.4291 14.2486C40.3749 14.2525 40.3207 14.2411 40.2727 14.2158L37.1858 12.5929Z" fill="#F5A623"/>
<path id="Vector_4" fill-rule="evenodd" clip-rule="evenodd" d="M51.151 12.5929L48.0641 14.2163C48.016 14.2417 47.9617 14.2531 47.9075 14.2493C47.8532 14.2454 47.8011 14.2263 47.7571 14.1944C47.7131 14.1624 47.679 14.1187 47.6586 14.0683C47.6382 14.0178 47.6323 13.9627 47.6416 13.9091L48.2317 10.4719L45.7336 8.03731C45.6947 7.99939 45.6672 7.95133 45.6542 7.89857C45.6412 7.84581 45.6432 7.79047 45.6601 7.73881C45.6769 7.68715 45.7079 7.64123 45.7495 7.60627C45.7911 7.5713 45.8416 7.54868 45.8954 7.54097L49.3465 7.03938L50.8903 3.91175C50.9144 3.86318 50.9515 3.8223 50.9976 3.79372C51.0436 3.76514 51.0968 3.75 51.151 3.75C51.2052 3.75 51.2583 3.76514 51.3044 3.79372C51.3504 3.8223 51.3876 3.86318 51.4117 3.91175L52.9554 7.03938L56.4066 7.54097C56.4603 7.54868 56.5109 7.5713 56.5525 7.60627C56.5941 7.64123 56.625 7.68715 56.6419 7.73881C56.6587 7.79047 56.6607 7.84581 56.6477 7.89857C56.6347 7.95133 56.6072 7.99939 56.5683 8.03731L54.0709 10.4719L54.6603 13.9091C54.6695 13.9627 54.6636 14.0177 54.6431 14.068C54.6226 14.1184 54.5885 14.162 54.5445 14.1939C54.5005 14.2258 54.4485 14.2447 54.3943 14.2486C54.3401 14.2525 54.2859 14.2411 54.2379 14.2158L51.151 12.5929Z" fill="#F5A623"/>
<path id="Vector_5" fill-rule="evenodd" clip-rule="evenodd" d="M65.1162 12.5929L62.0293 14.2163C61.9812 14.2417 61.9269 14.2531 61.8727 14.2493C61.8184 14.2454 61.7663 14.2263 61.7223 14.1944C61.6783 14.1624 61.6442 14.1187 61.6238 14.0683C61.6034 14.0178 61.5975 13.9627 61.6068 13.9091L62.1969 10.4719L59.6988 8.03731C59.6599 7.99939 59.6324 7.95133 59.6194 7.89857C59.6064 7.84581 59.6084 7.79047 59.6253 7.73881C59.6421 7.68715 59.6731 7.64123 59.7147 7.60627C59.7563 7.5713 59.8068 7.54868 59.8606 7.54097L63.3118 7.03938L64.8555 3.91175C64.8796 3.86318 64.9167 3.8223 64.9628 3.79372C65.0089 3.76514 65.062 3.75 65.1162 3.75C65.1704 3.75 65.2235 3.76514 65.2696 3.79372C65.3156 3.8223 65.3528 3.86318 65.3769 3.91175L66.9206 7.03938L70.3718 7.54097C70.4256 7.54868 70.4761 7.5713 70.5177 7.60627C70.5593 7.64123 70.5903 7.68715 70.6071 7.73881C70.6239 7.79047 70.626 7.84581 70.613 7.89857C70.6 7.95133 70.5724 7.99939 70.5335 8.03731L68.0361 10.4719L68.6255 13.9091C68.6347 13.9627 68.6288 14.0177 68.6083 14.068C68.5878 14.1184 68.5537 14.162 68.5097 14.1939C68.4657 14.2258 68.4137 14.2447 68.3595 14.2486C68.3053 14.2525 68.2511 14.2411 68.2031 14.2158L65.1162 12.5929Z" fill="#F5A623"/>
</g>
</g>
</svg>
